<svg xmlns="http://www.w3.org/2000/svg" width="20.196" height="20.196" viewBox="0 0 20.196 20.196"><defs><style>.a{fill:none;}.b{fill:#000f42;}</style></defs><rect class="a" width="20.1" height="20.1" transform="matrix(1, -0.005, 0.005, 1, 0, 0.097)"/><g transform="translate(0.048 0.048)"><path class="b" d="M9.855,13.207a.948.948,0,0,1-.762-.383L6.156,8.88A.951.951,0,0,1,7.681,7.745l2.163,2.906,5.948-8.239a.95.95,0,0,1,1.541,1.113l-6.708,9.288a.945.945,0,0,1-.763.394Z"/><path class="b" d="M9.838,17.658A7.8,7.8,0,0,1,9.8,2.052h0a.95.95,0,0,1,.005,1.9,5.9,5.9,0,0,0,.029,11.806h.028A5.91,5.91,0,0,0,15.74,9.826a.95.95,0,0,1,.946-.954h0a.951.951,0,0,1,.951.945,7.815,7.815,0,0,1-7.766,7.841Z"/></g></svg>