<svg xmlns="http://www.w3.org/2000/svg" width="20.1" height="20.1" viewBox="0 0 20.1 20.1"><defs><style>.a{fill:none;}.b{fill:#000f42;}</style></defs><rect class="a" width="20.1" height="20.1"/><rect class="a" width="15.1" height="15.1" transform="translate(2.499 2.874)"/><g transform="translate(-0.575)"><path class="b" d="M10.339,16.714c-4.431,0-8.316-3.958-9.041-9.206a.992.992,0,0,1,1.961-.3c.186.433,2.575,1.576,7.08,1.576s6.89-1.144,7.082-1.6a.977.977,0,0,1,1.124-.818,1.007,1.007,0,0,1,.832,1.137C18.663,12.67,14.693,16.714,10.339,16.714ZM4,9.881c1.24,2.851,3.7,4.833,6.335,4.833s5.091-1.982,6.331-4.833a20.909,20.909,0,0,1-6.331.906A20.935,20.935,0,0,1,4,9.881Z" transform="translate(0)"/><path class="b" d="M10.945,13.685a.8.8,0,0,1,0-1.6,2.187,2.187,0,0,0,1.691-.924.8.8,0,1,1,1.269.975A3.709,3.709,0,0,1,10.945,13.685Z" transform="translate(0.374 0.299)"/><path class="b" d="M10.339,10.613c-3.165,0-8.631-.66-9.038-3.132,0-.02-.007-.048-.01-.079h0a1.5,1.5,0,0,1-.013-.2c0-2.689,5.7-3.406,9.062-3.406a24.73,24.73,0,0,1,2.788.143l.054.008.044.008v0a16.55,16.55,0,0,1,3.546.746C18.943,5.458,19.4,6.479,19.4,7.2a1.858,1.858,0,0,1-.013.2.794.794,0,0,1-.019.122C18.9,9.961,13.484,10.613,10.339,10.613ZM3.286,7.2c.355.485,2.73,1.5,7.054,1.5,4.373,0,6.751-1.037,7.059-1.5A3.175,3.175,0,0,0,16.1,6.5,14.507,14.507,0,0,0,13,5.858l.112-.945-.146.943L12.91,5.8l-.006.05a22.641,22.641,0,0,0-2.564-.132C6.019,5.715,3.642,6.727,3.286,7.2Zm-.023.069v0Zm0,0v0Zm0,0Zm9.75-2.355h0Z" transform="translate(0)"/></g></svg>