<svg xmlns="http://www.w3.org/2000/svg" width="20.1" height="20.1" viewBox="0 0 20.1 20.1"><defs><style>.a{fill:none;}.b{fill:#000f42;}</style></defs><rect class="a" width="20.1" height="20.1"/><path class="b" d="M10.05,17.657a7.8,7.8,0,1,1,7.8-7.8A7.813,7.813,0,0,1,10.05,17.657Zm0-13.706a5.9,5.9,0,1,0,5.9,5.9A5.91,5.91,0,0,0,10.05,3.951Z"/><path class="b" d="M12.341,13.1a.947.947,0,0,1-.671-.278L9.378,10.526A.953.953,0,0,1,9.1,9.854V5.5a.951.951,0,0,1,1.9,0V9.46l2.013,2.013a.95.95,0,0,1-.672,1.622Z"/></svg>